<svg version="1.1" id="Layer_1" xmlns="http://www.w3.org/2000/svg" xmlns:xlink="http://www.w3.org/1999/xlink" x="0px" y="0px"
	 width="100%" viewBox="0 0 411 129" enable-background="new 0 0 411 129" xml:space="preserve">
<path fill="#FFFFFE" opacity="1.000000" stroke="none" 
	d="
M264.000000,130.000000 
	C176.000015,130.000000 88.500038,130.000000 1.000047,130.000000 
	C1.000031,87.000031 1.000031,44.000061 1.000016,1.000070 
	C137.999939,1.000047 274.999878,1.000047 411.999878,1.000023 
	C411.999908,43.999924 411.999908,86.999847 411.999939,129.999878 
	C362.833344,130.000000 313.666656,130.000000 264.000000,130.000000 
M191.604614,28.287657 
	C197.163834,32.348499 198.812256,38.453758 199.938187,44.713657 
	C200.875183,49.923115 201.414032,55.204178 202.129242,60.453526 
	C203.147034,56.407646 203.372528,52.421005 204.009567,48.501255 
	C205.316772,40.458153 206.679153,32.370449 214.902313,27.249031 
	C215.635559,27.090849 216.368805,26.932665 217.102051,26.774481 
	C217.080200,26.598293 217.058334,26.422106 217.036469,26.245918 
	C216.000626,26.245918 214.964767,26.245918 213.005157,26.155844 
	C205.695999,26.185871 198.386826,26.215900 190.430771,26.049007 
	C189.607788,26.103689 188.784821,26.158371 186.692703,26.297379 
	C188.966995,27.154634 189.997040,27.542889 191.604614,28.287657 
M254.209076,111.300713 
	C255.876236,112.888809 257.543396,114.476913 259.494751,116.335747 
	C260.960602,115.018860 262.221222,113.985046 263.369934,112.839066 
	C274.338348,101.896759 285.291931,90.939560 296.241669,79.978508 
	C308.368805,67.838791 320.419983,55.621872 332.662994,43.600235 
	C335.321228,40.990025 335.469421,39.210602 332.661407,36.765076 
	C329.904541,34.364120 327.202850,31.812859 324.929199,28.966341 
	C322.182373,25.527449 320.263580,26.101204 317.413452,28.986044 
	C299.268311,47.352318 280.963806,65.561180 262.700439,83.810547 
	C261.688843,84.821388 260.575836,85.730797 259.113647,87.043167 
	C249.784576,77.570824 240.594681,68.392685 231.616959,59.011524 
	C229.499664,56.799068 228.134567,56.497616 226.022110,58.808731 
	C223.214630,61.880222 220.309616,64.896996 217.174194,67.624184 
	C214.288773,70.133919 214.616089,71.891357 217.237076,74.460922 
	C229.491272,86.474670 241.567398,98.670052 254.209076,111.300713 
M137.284714,35.225391 
	C158.074234,61.834534 178.863754,88.443672 199.653259,115.052811 
	C200.084259,114.957626 200.515259,114.862450 200.946259,114.767273 
	C200.946259,103.301407 200.946259,91.835541 200.946259,80.918884 
	C197.954208,84.470680 195.529739,81.854393 193.197906,78.896523 
	C180.869629,63.258484 168.655655,47.528107 156.123657,32.055206 
	C154.091217,29.545809 150.819641,26.887457 147.848694,26.524305 
	C141.112411,25.700907 134.206543,26.265079 127.694191,26.265079 
	C130.791428,29.105804 133.819977,31.883524 137.284714,35.225391 
M96.715332,39.930931 
	C96.715500,60.083660 96.715469,80.236389 96.715950,100.389122 
	C96.716087,105.962486 96.409729,111.412109 89.603615,115.034187 
	C99.772354,115.034187 108.612991,115.034187 118.652580,115.034187 
	C112.327271,110.931793 112.130333,105.368599 112.145294,99.651543 
	C112.195404,80.498253 112.196358,61.344662 112.145561,42.191368 
	C112.129517,36.142456 112.327698,30.256702 119.214333,26.291393 
	C108.830185,26.291393 99.604546,26.291393 89.155037,26.291393 
	C95.204605,29.263390 96.485519,33.882015 96.715332,39.930931 
M141.741898,82.686470 
	C141.381683,78.613846 141.021469,74.541222 140.661255,70.468597 
	C139.215408,77.424240 138.953445,84.370056 137.909225,91.196220 
	C136.528778,100.220451 136.180222,109.931602 126.026672,115.324974 
	C135.759796,115.324974 144.906235,115.324974 154.728683,115.324974 
	C147.128708,112.076469 145.222839,105.594086 143.969635,98.844986 
	C143.033218,93.802094 142.497101,88.684875 141.741898,82.686470 
z"/>
<path fill="#076807" opacity="1.000000" stroke="none" 
	d="
M253.958130,111.050613 
	C241.567398,98.670052 229.491272,86.474670 217.237076,74.460922 
	C214.616089,71.891357 214.288773,70.133919 217.174194,67.624184 
	C220.309616,64.896996 223.214630,61.880222 226.022110,58.808731 
	C228.134567,56.497616 229.499664,56.799068 231.616959,59.011524 
	C240.594681,68.392685 249.784576,77.570824 259.113647,87.043167 
	C260.575836,85.730797 261.688843,84.821388 262.700439,83.810547 
	C280.963806,65.561180 299.268311,47.352318 317.413452,28.986044 
	C320.263580,26.101204 322.182373,25.527449 324.929199,28.966341 
	C327.202850,31.812859 329.904541,34.364120 332.661407,36.765076 
	C335.469421,39.210602 335.321228,40.990025 332.662994,43.600235 
	C320.419983,55.621872 308.368805,67.838791 296.241669,79.978508 
	C285.291931,90.939560 274.338348,101.896759 263.369934,112.839066 
	C262.221222,113.985046 260.960602,115.018860 259.494751,116.335747 
	C257.543396,114.476913 255.876236,112.888809 253.958130,111.050613 
z"/>
<path fill="#F28703" opacity="1.000000" stroke="none" 
	d="
M137.066620,34.943317 
	C133.819977,31.883524 130.791428,29.105804 127.694191,26.265079 
	C134.206543,26.265079 141.112411,25.700907 147.848694,26.524305 
	C150.819641,26.887457 154.091217,29.545809 156.123657,32.055206 
	C168.655655,47.528107 180.869629,63.258484 193.197906,78.896523 
	C195.529739,81.854393 197.954208,84.470680 200.946259,80.918884 
	C200.946259,91.835541 200.946259,103.301407 200.946259,114.767273 
	C200.515259,114.862450 200.084259,114.957626 199.653259,115.052811 
	C178.863754,88.443672 158.074234,61.834534 137.066620,34.943317 
z"/>
<path fill="#F28602" opacity="1.000000" stroke="none" 
	d="
M96.713196,39.480846 
	C96.485519,33.882015 95.204605,29.263390 89.155037,26.291393 
	C99.604546,26.291393 108.830185,26.291393 119.214333,26.291393 
	C112.327698,30.256702 112.129517,36.142456 112.145561,42.191368 
	C112.196358,61.344662 112.195404,80.498253 112.145294,99.651543 
	C112.130333,105.368599 112.327271,110.931793 118.652580,115.034187 
	C108.612991,115.034187 99.772354,115.034187 89.603615,115.034187 
	C96.409729,111.412109 96.716087,105.962486 96.715950,100.389122 
	C96.715469,80.236389 96.715500,60.083660 96.713196,39.480846 
z"/>
<path fill="#F38B0D" opacity="1.000000" stroke="none" 
	d="
M141.762299,83.143616 
	C142.497101,88.684875 143.033218,93.802094 143.969635,98.844986 
	C145.222839,105.594086 147.128708,112.076469 154.728683,115.324974 
	C144.906235,115.324974 135.759796,115.324974 126.026672,115.324974 
	C136.180222,109.931602 136.528778,100.220451 137.909225,91.196220 
	C138.953445,84.370056 139.215408,77.424240 140.661255,70.468597 
	C141.021469,74.541222 141.381683,78.613846 141.762299,83.143616 
z"/>
<path fill="#F38A0B" opacity="1.000000" stroke="none" 
	d="
M191.077667,26.245930 
	C198.386826,26.215900 205.695999,26.185871 213.518677,26.483841 
	C214.109116,26.987503 214.186035,27.163170 214.262939,27.338837 
	C206.679153,32.370449 205.316772,40.458153 204.009567,48.501255 
	C203.372528,52.421005 203.147034,56.407646 202.129242,60.453526 
	C201.414032,55.204178 200.875183,49.923115 199.938187,44.713657 
	C198.812256,38.453758 197.163834,32.348499 191.309464,27.828274 
	C191.035431,26.994570 191.056549,26.620249 191.077667,26.245930 
z"/>
<path fill="#F5A849" opacity="1.000000" stroke="none" 
	d="
M190.754211,26.147469 
	C191.056549,26.620249 191.035431,26.994570 191.020691,27.650017 
	C189.997040,27.542889 188.966995,27.154634 186.692703,26.297379 
	C188.784821,26.158371 189.607788,26.103689 190.754211,26.147469 
z"/>
<path fill="#F5A849" opacity="1.000000" stroke="none" 
	d="
M214.582626,27.293934 
	C214.186035,27.163170 214.109116,26.987503 213.980545,26.528877 
	C214.964767,26.245918 216.000626,26.245918 217.036469,26.245918 
	C217.058334,26.422106 217.080200,26.598293 217.102051,26.774481 
	C216.368805,26.932665 215.635559,27.090849 214.582626,27.293934 
z"/>
</svg>