<svg version="1.1" id="Layer_1" xmlns="http://www.w3.org/2000/svg" xmlns:xlink="http://www.w3.org/1999/xlink" x="0px" y="0px"
	 width="100%" viewBox="0 0 360 360" enable-background="new 0 0 360 360" xml:space="preserve">
<path fill="#F08501" opacity="1.000000" stroke="none" 
	d="
M170.000000,361.000000 
	C113.352821,361.000000 57.205650,361.000000 1.029236,361.000000 
	C1.029236,241.061142 1.029236,121.122269 1.029236,1.091700 
	C120.897163,1.091700 240.794418,1.091700 360.845825,1.091700 
	C360.845825,120.999847 360.845825,240.999908 360.845825,361.000000 
	C297.455627,361.000000 233.977814,361.000000 170.000000,361.000000 
M193.512482,126.879593 
	C193.892395,126.511787 194.272308,126.143974 194.782364,125.753319 
	C194.782364,125.753319 194.872833,125.656967 195.548721,125.629082 
	C197.023087,125.078339 198.497452,124.527596 199.839325,123.589279 
	C200.103668,123.571602 200.368591,123.542511 200.631439,123.555374 
	C200.655533,123.556557 200.666489,123.826027 200.683548,123.970909 
	C200.453064,123.956543 200.222595,123.942169 199.261734,124.373909 
	C198.169495,124.269859 197.077240,124.165810 195.934036,123.570419 
	C195.934036,123.570419 195.662048,123.158073 194.966965,122.843544 
	C184.345322,122.919739 173.723694,122.995934 162.632248,123.096230 
	C162.500580,123.188828 162.302765,123.256424 162.255661,123.380997 
	C162.207581,123.508171 162.254730,123.740623 162.350250,123.842796 
	C165.774246,127.505661 169.208801,131.158630 172.641541,135.564346 
	C173.882324,139.354919 175.123123,143.145477 176.459442,147.565887 
	C176.580719,147.972458 176.701981,148.379028 176.662170,149.503937 
	C177.037933,151.071533 177.413696,152.639130 177.831329,154.911789 
	C177.908630,155.613739 177.985931,156.315704 177.838837,157.701141 
	C178.260956,163.061615 178.683060,168.422104 179.105179,173.782578 
	C179.544418,173.772858 179.983658,173.763123 180.422897,173.753403 
	C180.950409,166.845367 181.477905,159.937317 182.124512,152.353973 
	C182.196991,151.672195 182.269455,150.990417 182.849152,149.846039 
	C185.030716,143.505829 187.212265,137.165619 189.754242,130.418808 
	C189.845016,130.262070 189.935806,130.105347 190.462326,129.835785 
	C190.668365,129.466827 190.874420,129.097855 191.426361,128.409607 
	C191.426361,128.409607 191.746368,128.064407 192.193130,128.034271 
	C192.435272,127.679550 192.677399,127.324829 192.976273,126.988541 
	C192.976273,126.988541 192.973511,126.928955 193.512482,126.879593 
M41.648975,127.165359 
	C41.648975,127.165359 41.911526,127.391327 41.911526,127.391327 
	C41.911526,127.391327 42.257782,127.379662 42.631325,128.027481 
	C43.079330,128.625122 43.527336,129.222778 43.941616,130.578934 
	C44.496750,134.499466 45.512154,138.417618 45.532623,142.340927 
	C45.669537,168.584930 45.585163,194.830078 45.606800,221.074799 
	C45.608425,223.046021 45.875614,225.017014 45.889957,227.771683 
	C45.856266,229.091843 45.822571,230.412018 45.344772,232.261917 
	C44.712482,234.224457 44.080193,236.186981 42.976562,238.620941 
	C42.722282,238.983109 42.468006,239.345291 41.749771,239.796692 
	C41.437073,240.139008 41.124371,240.481339 40.234798,241.024963 
	C39.512104,241.707825 38.789410,242.390686 37.716255,243.056808 
	C37.456051,243.228668 37.195843,243.400528 36.935642,243.572388 
	C37.238461,243.629318 37.541275,243.686264 38.459236,244.060699 
	C63.218369,244.060699 87.977501,244.060699 112.736633,244.060699 
	C112.843796,243.692398 112.950966,243.324081 113.058136,242.955780 
	C111.357353,241.732391 109.656570,240.509003 107.667053,238.794800 
	C107.398216,238.528946 107.129379,238.263092 106.652367,237.305695 
	C104.377151,230.550919 102.101936,223.796127 99.933792,216.212479 
	C99.408768,213.711243 98.883751,211.209991 98.311836,208.025314 
	C98.205406,207.349701 98.098976,206.674103 98.114952,205.490051 
	C98.056252,205.325897 97.997559,205.161758 98.019775,204.120789 
	C97.830727,202.078445 97.641685,200.036087 97.735283,197.109619 
	C97.303963,189.341736 96.872643,181.573868 96.441315,173.805984 
	C95.832375,173.832260 95.223427,173.858536 94.614487,173.884811 
	C94.614487,178.314560 94.614487,182.744308 94.409561,187.998352 
	C94.360779,190.516037 94.311996,193.033707 94.116631,195.779968 
	C94.068604,195.968262 94.100792,196.141663 93.966743,196.789490 
	C93.978195,197.857407 93.989639,198.925323 93.827911,200.660492 
	C93.831444,201.346878 93.834969,202.033249 93.430901,203.372421 
	C93.212708,205.946564 92.994507,208.520721 92.487991,211.696976 
	C92.458237,212.138306 92.428482,212.579636 92.079849,213.742188 
	C91.595428,216.856766 91.111015,219.971359 90.284714,223.750732 
	C90.129021,224.732468 89.973335,225.714203 89.339859,227.178711 
	C88.967400,228.467651 88.594933,229.756592 88.093124,231.160187 
	C88.093124,231.160187 88.151207,231.322983 87.743057,231.769196 
	C87.270920,232.888931 86.798775,234.008667 86.157623,235.211273 
	C86.157623,235.211273 86.157143,235.399506 85.678833,235.698883 
	C85.221603,236.504745 84.764374,237.310623 84.117279,238.216690 
	C84.117279,238.216690 84.096977,238.430405 83.814270,238.468674 
	C83.628181,238.604065 83.587898,238.774033 83.124908,239.295761 
	C82.705795,239.788101 82.286674,240.280441 81.203651,240.860825 
	C79.897537,241.648865 78.591431,242.436890 76.376045,243.153809 
	C76.072487,243.170395 75.768929,243.186996 75.102379,242.709000 
	C73.330994,241.208237 71.559601,239.707458 69.669289,237.725449 
	C69.524391,237.418793 69.314026,237.166779 68.807999,236.146606 
	C68.332420,232.869659 67.456459,229.594223 67.443977,226.315506 
	C67.334229,197.492447 67.224220,168.667084 67.546112,139.847229 
	C67.593346,135.618256 69.909737,131.414627 71.858246,126.887459 
	C74.635086,124.356689 77.696419,123.822174 81.235405,125.785011 
	C81.235405,125.785011 81.494530,125.816734 81.767982,126.298035 
	C82.559517,126.726028 83.351051,127.154015 84.569191,128.044800 
	C85.391296,128.688095 86.213409,129.331390 87.137238,130.484909 
	C87.421967,130.662155 87.706688,130.839386 88.360405,131.637695 
	C88.882416,132.130936 89.404427,132.624176 89.761566,133.212433 
	C89.761566,133.212433 90.023827,133.256866 90.344040,133.912384 
	C90.689423,134.251785 91.034805,134.591187 91.569763,135.527710 
	C93.011826,137.068619 94.453880,138.609543 96.032990,140.565826 
	C96.032990,140.565826 96.325096,140.891388 96.392502,141.459839 
	C96.922264,141.984421 97.452034,142.509003 98.102455,143.462555 
	C98.448158,143.699570 98.793869,143.936584 99.449860,144.927902 
	C99.959724,145.558212 100.469582,146.188522 100.948753,147.250916 
	C101.366859,147.618256 101.784958,147.985580 102.508369,148.934052 
	C103.085251,149.589798 103.662125,150.245560 104.298943,151.494324 
	C104.830811,152.050385 105.362679,152.606430 106.075951,153.604065 
	C106.075951,153.604065 106.435623,153.917938 106.589409,154.514603 
	C107.700745,155.713821 108.812073,156.913055 110.150902,158.668228 
	C110.565987,159.090393 110.981064,159.512543 111.563461,160.563507 
	C113.689728,163.077454 115.815994,165.591415 118.135628,168.636963 
	C118.464394,169.089157 118.793159,169.541367 119.095978,170.648865 
	C120.416916,172.059326 121.737854,173.469803 123.046654,174.951385 
	C123.046654,174.951385 123.118637,174.946686 123.306046,175.599655 
	C133.480621,188.705658 143.616669,201.841843 153.845657,214.905243 
	C159.143982,221.671722 164.606995,228.309235 170.000000,235.000000 
	C170.000000,235.000000 169.994919,235.004227 170.109375,235.617325 
	C170.894699,236.563156 171.680038,237.509003 172.491867,238.494171 
	C172.491867,238.494171 172.520126,238.532272 172.737762,239.136398 
	C174.026047,240.716934 175.314316,242.297455 176.602585,243.877991 
	C176.990356,243.750092 177.378128,243.622177 177.765900,243.494278 
	C177.765900,239.653915 177.765900,235.813568 177.959579,231.155655 
	C177.932968,229.758942 177.906342,228.362244 178.127640,226.193024 
	C178.127640,216.373001 178.127640,206.552979 178.127640,196.910828 
	C174.326263,200.544174 172.539642,200.596298 169.063431,196.258972 
	C160.655807,185.768677 152.457474,175.110931 144.094070,164.584824 
	C135.440109,153.693024 126.690956,142.876846 118.002335,132.000595 
	C118.002335,132.000595 117.973450,132.014633 117.844276,131.347458 
	C114.076492,125.123650 108.756577,122.246460 101.314201,122.883698 
	C95.914345,123.346062 90.449539,123.049774 84.384605,122.909492 
	C83.739784,122.980499 83.094971,123.051506 81.895287,123.011856 
	C81.523636,123.054657 81.151978,123.097458 80.028130,122.944397 
	C76.346512,122.996529 72.664902,123.048653 68.054115,122.987236 
	C59.237381,122.976929 50.419544,122.899239 41.605350,123.043755 
	C40.533672,123.061340 39.481602,124.274948 38.784214,125.325554 
	C39.577110,125.718269 40.370007,126.110977 41.301327,126.749466 
	C41.301327,126.749466 41.572361,126.827644 41.648975,127.165359 
M342.461060,150.495987 
	C349.948059,144.921799 350.052704,143.949890 343.781677,137.691498 
	C340.597473,134.513687 337.381409,131.367752 334.199524,128.187637 
	C329.254456,123.245293 328.715027,123.266693 323.865417,128.121277 
	C299.256927,152.755035 274.591614,177.332275 250.064941,202.047134 
	C247.364197,204.768646 245.642838,205.133621 242.822235,202.239960 
	C232.008453,191.146027 220.946594,180.294388 210.059982,169.270706 
	C205.562408,164.716492 204.726517,164.590958 200.008087,169.210449 
	C196.317337,172.823853 192.686798,176.498947 189.042877,180.159927 
	C184.682327,184.540833 184.635834,185.472275 189.056595,189.903839 
	C206.590149,207.480270 224.147079,225.033493 241.725754,242.564819 
	C245.866211,246.694138 246.944260,246.641922 251.118179,242.468735 
	C280.339264,213.252792 309.560944,184.037460 338.746185,154.785736 
	C339.879608,153.649719 340.644806,152.146317 341.734802,150.738464 
	C341.734802,150.738464 341.811523,150.585739 342.461060,150.495987 
z"/>
<path fill="#FEFEFE" opacity="1.000000" stroke="none" 
	d="
M100.979439,146.818832 
	C100.469582,146.188522 99.959724,145.558212 99.637619,144.462906 
	C100.273247,143.433456 100.721115,142.869003 101.168991,142.304550 
	C100.062485,141.920212 98.955986,141.535873 97.602348,141.067535 
	C97.011841,140.952820 96.668465,140.922104 96.325096,140.891388 
	C96.325096,140.891388 96.032990,140.565826 95.993027,140.025574 
	C95.609985,138.679337 95.266914,137.873352 94.929893,136.655441 
	C95.737030,130.837372 91.740097,130.595474 87.861557,129.911575 
	C87.401596,129.921600 87.218559,129.948135 87.035515,129.974686 
	C86.213409,129.331390 85.391296,128.688095 84.380539,127.556137 
	C84.110023,126.733337 84.028145,126.399193 83.948402,125.703918 
	C83.947319,124.861298 83.944115,124.379791 84.174484,123.893532 
	C84.408058,123.888771 84.875183,123.877571 85.349915,123.914444 
	C88.639465,123.977486 91.457672,124.104500 94.268425,124.009903 
	C101.193733,123.776855 107.818817,124.521004 113.503693,129.046265 
	C114.897842,130.156036 116.478531,131.031464 117.973450,132.014633 
	C117.973450,132.014633 118.002335,132.000595 118.008270,132.385605 
	C118.828644,134.560318 119.343170,136.582733 120.516006,138.094345 
	C123.544373,141.997452 126.998108,145.569916 130.037628,149.465088 
	C135.792404,156.839890 141.436691,164.303345 147.002823,171.821808 
	C149.431900,175.102875 151.551117,178.613052 153.820190,182.013077 
	C154.439590,182.941208 154.984283,183.951263 155.749161,184.744476 
	C158.452225,187.547729 161.218491,190.290939 163.993866,193.023315 
	C166.772186,195.758560 169.173981,199.283905 172.498932,200.950287 
	C176.417099,202.913986 177.078018,205.414551 177.086563,209.197205 
	C177.099930,215.120544 177.591003,221.042816 177.879730,226.965530 
	C177.906342,228.362244 177.932968,229.758942 177.562866,231.746201 
	C175.617477,234.401932 174.068802,236.467102 172.520126,238.532272 
	C172.520126,238.532272 172.491867,238.494171 172.533569,238.126724 
	C171.715149,236.840927 170.855026,235.922577 169.994919,235.004227 
	C169.994919,235.004227 170.000000,235.000000 170.007629,234.624542 
	C169.865021,233.437759 169.967148,232.440521 169.526840,231.842911 
	C162.452225,222.240891 155.382935,212.632980 148.146133,203.153351 
	C144.971954,198.995407 141.513931,195.042389 138.024139,191.139969 
	C133.134232,185.671906 128.094360,180.337997 123.118637,174.946686 
	C123.118637,174.946686 123.046654,174.951385 123.035851,174.569794 
	C121.724007,172.789993 120.422966,171.391769 119.121925,169.993561 
	C118.793159,169.541367 118.464394,169.089157 117.986816,168.013977 
	C116.589478,164.129089 115.738083,160.524078 111.396141,159.934708 
	C110.981064,159.512543 110.565987,159.090393 110.130692,158.127380 
	C110.141289,157.403061 110.172081,157.219620 110.308540,156.743896 
	C110.628929,153.391129 109.109589,151.969986 105.924194,151.744354 
	C105.222107,151.343002 104.730553,151.122162 104.239006,150.901306 
	C103.662125,150.245560 103.085251,149.589798 102.362289,148.423599 
	C101.803947,147.548370 101.391693,147.183594 100.979439,146.818832 
M123.846130,145.873993 
	C123.482193,146.027390 123.118256,146.180786 122.754326,146.334198 
	C123.065742,146.645035 123.377159,146.955856 123.688591,147.266693 
	C123.839920,146.901428 123.991257,146.536148 123.846130,145.873993 
M96.474388,132.501358 
	C96.474388,132.501358 96.512039,132.488510 96.474388,132.501358 
z"/>
<path fill="#567C00" opacity="1.000000" stroke="none" 
	d="
M341.581573,150.814087 
	C340.644806,152.146317 339.879608,153.649719 338.746185,154.785736 
	C309.560944,184.037460 280.339264,213.252792 251.118179,242.468735 
	C246.944260,246.641922 245.866211,246.694138 241.725754,242.564819 
	C224.147079,225.033493 206.590149,207.480270 189.056595,189.903839 
	C184.635834,185.472275 184.682327,184.540833 189.042877,180.159927 
	C192.686798,176.498947 196.317337,172.823853 200.008087,169.210449 
	C204.726517,164.590958 205.562408,164.716492 210.059982,169.270706 
	C220.946594,180.294388 232.008453,191.146027 242.822235,202.239960 
	C245.642838,205.133621 247.364197,204.768646 250.064941,202.047134 
	C274.591614,177.332275 299.256927,152.755035 323.865417,128.121277 
	C328.715027,123.266693 329.254456,123.245293 334.199524,128.187637 
	C337.381409,131.367752 340.597473,134.513687 343.781677,137.691498 
	C350.052704,143.949890 349.948059,144.921799 342.213074,150.216400 
	C346.890564,143.173935 346.891296,143.173203 340.758209,137.055038 
	C338.162659,134.465790 335.354065,132.054474 333.018982,129.248764 
	C330.130707,125.778313 328.057831,126.227623 325.007263,129.303925 
	C301.188446,153.323700 277.197021,177.172241 253.285553,201.100281 
	C246.417862,207.972717 246.465698,208.004852 239.526917,201.054718 
	C230.349319,191.862076 221.165924,182.675201 211.969803,173.501083 
	C205.002426,166.550354 204.880997,166.561142 197.798676,173.689911 
	C195.567215,175.936005 193.381821,178.229263 191.109177,180.432693 
	C187.745041,183.694321 187.583359,186.353088 191.265320,189.952255 
	C207.589767,205.909698 223.630219,222.157806 239.762329,238.311829 
	C245.988678,244.546616 246.785950,244.641037 252.951324,238.435150 
	C262.567108,228.756180 271.998474,218.893539 281.641022,209.241669 
	C295.044250,195.825485 308.520264,182.481003 322.066010,169.208740 
	C328.450104,162.953583 335.069031,156.938141 341.581573,150.814087 
z"/>
<path fill="#FEF7E2" opacity="1.000000" stroke="none" 
	d="
M93.838501,202.719635 
	C93.834969,202.033249 93.831444,201.346878 94.101624,199.988556 
	C94.321297,198.311127 94.267250,197.305649 94.213203,196.300156 
	C94.100792,196.141663 94.068604,195.968262 94.453705,195.309967 
	C95.255249,194.082794 95.719704,193.325623 96.254982,192.923141 
	C96.701416,194.849792 97.077026,196.421768 97.452637,197.993744 
	C97.641685,200.036087 97.830727,202.078445 97.880867,204.670624 
	C97.643967,205.539642 97.727493,205.798996 97.992546,205.998489 
	C98.098976,206.674103 98.205406,207.349701 98.219040,208.732742 
	C98.097824,209.950897 98.069405,210.461609 98.037292,211.293671 
	C98.268250,212.427017 98.502907,213.239044 98.775772,214.416473 
	C98.885490,215.513107 98.957001,216.244308 99.043427,217.376526 
	C99.381821,219.552338 99.400879,221.455551 100.085411,223.077988 
	C102.207855,228.108429 104.583290,233.032120 106.860542,237.997238 
	C107.129379,238.263092 107.398216,238.528946 107.898224,239.332397 
	C110.314468,242.876740 108.255875,243.064270 105.987144,243.069244 
	C99.413078,243.083649 92.833900,243.219986 86.268738,242.979904 
	C84.776772,242.925323 83.333336,241.543625 81.867554,240.772781 
	C82.286674,240.280441 82.705795,239.788101 83.527237,239.092041 
	C84.073685,238.767975 84.129486,238.615326 84.096977,238.430405 
	C84.096977,238.430405 84.117279,238.216690 84.489105,238.064392 
	C85.293007,237.074570 85.725082,236.237045 86.157150,235.399506 
	C86.157143,235.399506 86.157623,235.211273 86.530457,235.028473 
	C87.319260,233.671448 87.735237,232.497208 88.151207,231.322983 
	C88.151207,231.322983 88.093124,231.160187 88.425835,230.883820 
	C89.111580,229.303619 89.464615,227.999786 89.817642,226.695938 
	C89.973335,225.714203 90.129021,224.732468 90.715820,223.203186 
	C91.564194,219.444077 91.981453,216.232529 92.398720,213.020966 
	C92.428482,212.579636 92.458237,212.138306 92.878525,211.141006 
	C93.458878,207.963242 93.648689,205.341431 93.838501,202.719635 
z"/>
<path fill="#FEF8EA" opacity="1.000000" stroke="none" 
	d="
M182.341934,150.308640 
	C182.269455,150.990417 182.196991,151.672195 181.877960,153.023285 
	C181.193268,155.819809 180.755127,157.947021 180.322433,160.047684 
	C179.868088,159.983887 179.636719,160.012024 179.595428,159.936386 
	C179.068832,158.972137 178.569489,157.993011 178.063232,157.017654 
	C177.985931,156.315704 177.908630,155.613739 177.915497,154.201935 
	C177.607529,151.923248 177.215393,150.354416 176.823242,148.785583 
	C176.701981,148.379028 176.580719,147.972458 176.528000,146.952927 
	C175.278336,142.497635 173.960114,138.655319 172.641891,134.812988 
	C169.208801,131.158630 165.774246,127.505661 162.350250,123.842796 
	C162.254730,123.740623 162.207581,123.508171 162.255661,123.380997 
	C162.302765,123.256424 162.500580,123.188828 163.296967,123.189743 
	C174.528473,123.241531 185.095261,123.199799 195.662048,123.158073 
	C195.662048,123.158073 195.934036,123.570419 195.794861,123.998566 
	C195.394745,124.836807 195.133789,125.246887 194.872833,125.656967 
	C194.872833,125.656967 194.782364,125.753319 194.437164,125.768204 
	C193.719162,126.165039 193.346329,126.546997 192.973511,126.928955 
	C192.973511,126.928955 192.976273,126.988541 192.722504,126.997696 
	C192.227951,127.359367 191.987152,127.711891 191.746368,128.064407 
	C191.746368,128.064407 191.426361,128.409607 191.030273,128.616013 
	C190.431656,129.197830 190.229111,129.573227 190.026581,129.948639 
	C189.935806,130.105347 189.845016,130.262070 189.284805,130.756592 
	C186.657547,137.499130 184.499741,143.903885 182.341934,150.308640 
z"/>
<path fill="#FEF7E2" opacity="1.000000" stroke="none" 
	d="
M178.003693,226.579285 
	C177.591003,221.042816 177.099930,215.120544 177.086563,209.197205 
	C177.078018,205.414551 176.417099,202.913986 172.498932,200.950287 
	C169.173981,199.283905 166.772186,195.758560 163.993866,193.023315 
	C161.218491,190.290939 158.452225,187.547729 155.749161,184.744476 
	C154.984283,183.951263 154.439590,182.941208 153.820190,182.013077 
	C151.551117,178.613052 149.431900,175.102875 147.002823,171.821808 
	C141.436691,164.303345 135.792404,156.839890 130.037628,149.465088 
	C126.998108,145.569916 123.544373,141.997452 120.516006,138.094345 
	C119.343170,136.582733 118.828644,134.560318 117.998825,132.399109 
	C126.690956,142.876846 135.440109,153.693024 144.094070,164.584824 
	C152.457474,175.110931 160.655807,185.768677 169.063431,196.258972 
	C172.539642,200.596298 174.326263,200.544174 178.127640,196.910828 
	C178.127640,206.552979 178.127640,216.373001 178.003693,226.579285 
z"/>
<path fill="#FDE4B8" opacity="1.000000" stroke="none" 
	d="
M71.176208,127.199280 
	C69.909737,131.414627 67.593346,135.618256 67.546112,139.847229 
	C67.224220,168.667084 67.334229,197.492447 67.443977,226.315506 
	C67.456459,229.594223 68.332420,232.869659 68.814056,236.658020 
	C68.820107,237.169434 68.602753,237.370285 68.445862,237.302551 
	C68.288979,237.234818 67.956009,237.151947 67.845551,236.869629 
	C67.685272,236.391449 67.635452,236.195587 67.531601,235.812241 
	C67.361679,235.385056 67.198753,235.183319 66.925613,234.790359 
	C66.862434,234.561157 66.751839,234.098694 66.780441,233.719604 
	C66.573387,231.888550 66.337723,230.436569 66.085106,228.517166 
	C66.073135,197.703522 66.078125,167.357285 66.241211,136.727081 
	C66.483086,135.586548 66.566864,134.729996 66.713104,133.569321 
	C66.863991,132.860779 66.952408,132.456375 67.183212,131.896454 
	C67.496078,131.512909 67.613266,131.260208 67.729439,130.650299 
	C67.834145,129.872162 67.886574,129.426529 68.187103,128.829880 
	C68.943214,128.101471 69.451225,127.524078 70.174988,126.908325 
	C70.390732,126.869972 70.812218,126.751358 70.903130,126.863403 
	C70.994041,126.975456 71.176201,127.199280 71.176208,127.199280 
z"/>
<path fill="#FDE4B8" opacity="1.000000" stroke="none" 
	d="
M46.019352,226.988113 
	C45.875614,225.017014 45.608425,223.046021 45.606800,221.074799 
	C45.585163,194.830078 45.669537,168.584930 45.532623,142.340927 
	C45.512154,138.417618 44.496750,134.499466 44.134621,130.178741 
	C44.557140,129.838013 44.779526,129.917450 45.056980,130.315735 
	C45.635376,131.465118 46.151569,132.315628 46.695118,133.605133 
	C46.850468,136.695480 46.978462,139.346832 47.066525,142.466034 
	C47.050346,167.623215 47.074097,192.312531 47.059822,217.443817 
	C46.687649,220.919891 46.353500,223.953995 46.019352,226.988113 
z"/>
<path fill="#FEF7E2" opacity="1.000000" stroke="none" 
	d="
M123.212341,175.273163 
	C128.094360,180.337997 133.134232,185.671906 138.024139,191.139969 
	C141.513931,195.042389 144.971954,198.995407 148.146133,203.153351 
	C155.382935,212.632980 162.452225,222.240891 169.526840,231.842911 
	C169.967148,232.440521 169.865021,233.437759 170.005432,234.627045 
	C164.606995,228.309235 159.143982,221.671722 153.845657,214.905243 
	C143.616669,201.841843 133.480621,188.705658 123.212341,175.273163 
z"/>
<path fill="#FDE4B8" opacity="1.000000" stroke="none" 
	d="
M81.535606,240.816803 
	C83.333336,241.543625 84.776772,242.925323 86.268738,242.979904 
	C92.833900,243.219986 99.413078,243.083649 105.987144,243.069244 
	C108.255875,243.064270 110.314468,242.876740 108.042587,239.577820 
	C109.656570,240.509003 111.357353,241.732391 113.058136,242.955780 
	C112.950966,243.324081 112.843796,243.692398 112.736633,244.060699 
	C87.977501,244.060699 63.218369,244.060699 38.187691,243.832703 
	C38.076355,243.462524 38.126541,243.285477 38.066715,243.073532 
	C38.789410,242.390686 39.512104,241.707825 40.636871,241.029831 
	C41.038948,241.034698 41.266228,241.245743 41.299141,241.516266 
	C41.888096,242.190369 42.444138,242.593933 43.450600,243.007645 
	C46.601501,242.943085 49.301983,242.868378 52.466110,242.852051 
	C57.965450,242.862091 63.004459,242.892349 68.033203,242.679764 
	C68.778046,242.648285 69.474396,241.469955 70.118263,240.533173 
	C69.830147,239.688858 69.616959,239.133560 69.500351,238.485870 
	C69.596924,238.393448 69.788216,238.206680 69.788208,238.206680 
	C71.559601,239.707458 73.330994,241.208237 75.256561,243.031235 
	C76.035599,243.310623 76.660454,243.267776 77.285316,243.224930 
	C78.591431,242.436890 79.897537,241.648865 81.535606,240.816803 
z"/>
<path fill="#FFFEFE" opacity="1.000000" stroke="none" 
	d="
M47.106457,141.998184 
	C46.978462,139.346832 46.850468,136.695480 46.814835,133.296982 
	C46.968811,131.645599 47.030422,130.741364 47.092037,129.837128 
	C46.392952,129.897049 45.693867,129.956955 44.994778,130.016846 
	C44.779526,129.917450 44.557140,129.838013 44.151482,129.799484 
	C43.527336,129.222778 43.079330,128.625122 42.549217,127.644928 
	C42.467113,127.262367 42.523640,127.029144 42.798233,126.832825 
	C45.036678,125.770302 46.966820,124.260460 48.970551,124.155502 
	C55.663479,123.804901 62.382751,123.957283 69.322571,123.929848 
	C69.553215,123.942711 70.013954,123.976723 70.013649,124.348618 
	C69.995308,125.462570 69.977272,126.204628 69.959229,126.946686 
	C69.451225,127.524078 68.943214,128.101471 67.774986,128.795776 
	C64.667557,128.609253 62.225361,128.099655 59.772243,128.040131 
	C51.652534,127.843079 51.870285,127.941574 50.808174,135.970123 
	C50.525703,138.105347 48.390835,139.995514 47.106457,141.998184 
z"/>
<path fill="#FFFEFE" opacity="1.000000" stroke="none" 
	d="
M52.002464,242.793671 
	C49.301983,242.868378 46.601501,242.943085 43.390629,242.743988 
	C42.634754,241.994202 42.389267,241.518188 42.190735,240.821045 
	C42.327553,240.299774 42.319569,240.002304 42.213730,239.707474 
	C42.468006,239.345291 42.722282,238.983109 43.531502,238.242615 
	C44.653919,235.820236 45.221397,233.776215 45.788879,231.732178 
	C45.822571,230.412018 45.856266,229.091843 45.954655,227.379898 
	C46.353500,223.953995 46.687649,220.919891 47.410660,217.499283 
	C48.842464,218.636642 50.644753,220.088562 50.797047,221.696762 
	C51.460655,228.704269 51.644424,235.757217 52.002464,242.793671 
z"/>
<path fill="#FBCE85" opacity="1.000000" stroke="none" 
	d="
M97.593964,197.551682 
	C97.077026,196.421768 96.701416,194.849792 96.260391,192.594238 
	C95.668152,190.331802 95.141319,188.752930 94.614487,187.174057 
	C94.614487,182.744308 94.614487,178.314560 94.614487,173.884811 
	C95.223427,173.858536 95.832375,173.832260 96.441315,173.805984 
	C96.872643,181.573868 97.303963,189.341736 97.593964,197.551682 
z"/>
<path fill="#FBD48E" opacity="1.000000" stroke="none" 
	d="
M177.951035,157.359406 
	C178.569489,157.993011 179.068832,158.972137 179.595428,159.936386 
	C179.636719,160.012024 179.868088,159.983887 180.322433,160.047684 
	C180.755127,157.947021 181.193268,155.819809 181.818420,153.360931 
	C181.477905,159.937317 180.950409,166.845367 180.422897,173.753403 
	C179.983658,173.763123 179.544418,173.772858 179.105179,173.782578 
	C178.683060,168.422104 178.260956,163.061615 177.951035,157.359406 
z"/>
<path fill="#FEF7E2" opacity="1.000000" stroke="none" 
	d="
M117.908859,131.681046 
	C116.478531,131.031464 114.897842,130.156036 113.503693,129.046265 
	C107.818817,124.521004 101.193733,123.776855 94.268425,124.009903 
	C91.457672,124.104500 88.639465,123.977486 85.387360,123.718948 
	C84.950073,123.486580 85.013695,123.091766 85.013695,123.091766 
	C90.449539,123.049774 95.914345,123.346062 101.314201,122.883698 
	C108.756577,122.246460 114.076492,125.123650 117.908859,131.681046 
z"/>
<path fill="#FEF7E2" opacity="1.000000" stroke="none" 
	d="
M69.091934,123.916977 
	C62.382751,123.957283 55.663479,123.804901 48.970551,124.155502 
	C46.966820,124.260460 45.036678,125.770302 42.565231,126.758972 
	C42.057636,126.881439 41.572361,126.827644 41.572361,126.827644 
	C41.572361,126.827644 41.301327,126.749466 41.107834,126.372795 
	C40.083046,125.642174 39.251747,125.288216 38.420448,124.934265 
	C39.481602,124.274948 40.533672,123.061340 41.605350,123.043755 
	C50.419544,122.899239 59.237381,122.976929 68.544678,123.248215 
	C69.035240,123.509186 69.091934,123.916977 69.091934,123.916977 
z"/>
<path fill="#FEF7E2" opacity="1.000000" stroke="none" 
	d="
M172.628937,238.834335 
	C174.068802,236.467102 175.617477,234.401932 177.466019,232.154968 
	C177.765900,235.813568 177.765900,239.653915 177.765900,243.494278 
	C177.378128,243.622177 176.990356,243.750092 176.602585,243.877991 
	C175.314316,242.297455 174.026047,240.716934 172.628937,238.834335 
z"/>
<path fill="#FBD48E" opacity="1.000000" stroke="none" 
	d="
M195.314514,123.000809 
	C185.095261,123.199799 174.528473,123.241531 163.531860,123.177696 
	C173.723694,122.995934 184.345322,122.919739 195.314514,123.000809 
z"/>
<path fill="#FDE4B8" opacity="1.000000" stroke="none" 
	d="
M106.756454,237.651459 
	C104.583290,233.032120 102.207855,228.108429 100.085411,223.077988 
	C99.400879,221.455551 99.381821,219.552338 99.241867,217.405884 
	C99.425400,217.034225 99.826729,217.041351 99.826721,217.041351 
	C102.101936,223.796127 104.377151,230.550919 106.756454,237.651459 
z"/>
<path fill="#FBD48E" opacity="1.000000" stroke="none" 
	d="
M182.595551,150.077332 
	C184.499741,143.903885 186.657547,137.499130 189.104584,130.959900 
	C187.212265,137.165619 185.030716,143.505829 182.595551,150.077332 
z"/>
<path fill="#FEF7E2" opacity="1.000000" stroke="none" 
	d="
M88.138489,129.928070 
	C91.740097,130.595474 95.737030,130.837372 94.676834,136.496674 
	C93.405212,136.143433 92.392700,135.537018 91.380188,134.930588 
	C91.034805,134.591187 90.689423,134.251785 90.210297,133.544159 
	C90.076561,133.175919 89.926437,133.117401 89.926437,133.117401 
	C89.404427,132.624176 88.882416,132.130936 88.218384,131.055817 
	C88.097069,130.291962 88.117775,130.110016 88.138489,129.928070 
z"/>
<path fill="#FDE4B8" opacity="1.000000" stroke="none" 
	d="
M69.322571,123.929840 
	C69.091934,123.916977 69.035240,123.509186 69.009262,123.304977 
	C72.664902,123.048653 76.346512,122.996529 80.436798,123.452042 
	C80.924774,124.497391 81.004082,125.035080 81.083397,125.572777 
	C77.696419,123.822174 74.635086,124.356689 71.517227,127.043365 
	C71.176201,127.199280 70.994041,126.975456 71.094711,126.673233 
	C71.687843,125.728836 72.180298,125.086662 73.031456,123.976723 
	C71.562897,123.976723 70.788429,123.976723 70.013954,123.976723 
	C70.013954,123.976723 69.553215,123.942711 69.322571,123.929840 
z"/>
<path fill="#FEF7E2" opacity="1.000000" stroke="none" 
	d="
M111.479797,160.249115 
	C115.738083,160.524078 116.589478,164.129089 117.890137,167.748184 
	C115.815994,165.591415 113.689728,163.077454 111.479797,160.249115 
z"/>
<path fill="#FBD48E" opacity="1.000000" stroke="none" 
	d="
M172.641724,135.188660 
	C173.960114,138.655319 175.278336,142.497635 176.480240,146.638000 
	C175.123123,143.145477 173.882324,139.354919 172.641724,135.188660 
z"/>
<path fill="#FDE4B8" opacity="1.000000" stroke="none" 
	d="
M92.239281,213.381577 
	C91.981453,216.232529 91.564194,219.444077 90.886765,222.870789 
	C91.111015,219.971359 91.595428,216.856766 92.239281,213.381577 
z"/>
<path fill="#FDE4B8" opacity="1.000000" stroke="none" 
	d="
M94.512024,187.586212 
	C95.141319,188.752930 95.668152,190.331802 96.189575,192.239563 
	C95.719704,193.325623 95.255249,194.082794 94.526993,195.195679 
	C94.311996,193.033707 94.360779,190.516037 94.512024,187.586212 
z"/>
<path fill="#FEF7E2" opacity="1.000000" stroke="none" 
	d="
M106.134727,151.924850 
	C109.109589,151.969986 110.628929,153.391129 110.059433,156.542984 
	C108.614990,155.728882 107.525307,154.823410 106.435623,153.917938 
	C106.435623,153.917938 106.075951,153.604065 106.054153,153.075653 
	C106.066483,152.339767 106.100609,152.132309 106.134727,151.924850 
z"/>
<path fill="#FDE4B8" opacity="1.000000" stroke="none" 
	d="
M91.474976,135.229156 
	C92.392700,135.537018 93.405212,136.143433 94.670776,136.908630 
	C95.266914,137.873352 95.609985,138.679337 95.924500,139.817871 
	C94.453880,138.609543 93.011826,137.068619 91.474976,135.229156 
z"/>
<path fill="#FDE4B8" opacity="1.000000" stroke="none" 
	d="
M93.634705,203.046021 
	C93.648689,205.341431 93.458878,207.963242 93.022690,210.839951 
	C92.994507,208.520721 93.212708,205.946564 93.634705,203.046021 
z"/>
<path fill="#FEF7E2" opacity="1.000000" stroke="none" 
	d="
M119.108948,170.321213 
	C120.422966,171.391769 121.724007,172.789993 123.041916,174.534241 
	C121.737854,173.469803 120.416916,172.059326 119.108948,170.321213 
z"/>
<path fill="#FEF7E2" opacity="1.000000" stroke="none" 
	d="
M97.849487,141.151520 
	C98.955986,141.535873 100.062485,141.920212 101.168991,142.304550 
	C100.721115,142.869003 100.273247,143.433456 99.482468,144.085754 
	C98.793869,143.936584 98.448158,143.699570 98.054085,142.932388 
	C97.953636,141.985321 97.901558,141.568420 97.849487,141.151520 
z"/>
<path fill="#FBD48E" opacity="1.000000" stroke="none" 
	d="
M176.742706,149.144760 
	C177.215393,150.354416 177.607529,151.923248 177.894562,153.849396 
	C177.413696,152.639130 177.037933,151.071533 176.742706,149.144760 
z"/>
<path fill="#FBCE85" opacity="1.000000" stroke="none" 
	d="
M99.880264,216.626923 
	C99.826729,217.041351 99.425400,217.034225 99.226959,217.004868 
	C98.957001,216.244308 98.885490,215.513107 98.787178,214.094696 
	C98.520584,212.595764 98.280777,211.784042 98.040985,210.972336 
	C98.069405,210.461609 98.097824,209.950897 98.242493,209.074463 
	C98.883751,211.209991 99.408768,213.711243 99.880264,216.626923 
z"/>
<path fill="#FDE4B8" opacity="1.000000" stroke="none" 
	d="
M45.566826,231.997040 
	C45.221397,233.776215 44.653919,235.820236 43.767174,238.006897 
	C44.080193,236.186981 44.712482,234.224457 45.566826,231.997040 
z"/>
<path fill="#FDE4B8" opacity="1.000000" stroke="none" 
	d="
M106.512512,154.216278 
	C107.525307,154.823410 108.614990,155.728882 109.953781,156.835266 
	C110.172081,157.219620 110.141289,157.403061 110.016953,157.849396 
	C108.812073,156.913055 107.700745,155.713821 106.512512,154.216278 
z"/>
<path fill="#FBD48E" opacity="1.000000" stroke="none" 
	d="
M195.210785,125.643021 
	C195.133789,125.246887 195.394745,124.836807 195.820343,124.244240 
	C197.077240,124.165810 198.169495,124.269859 199.620514,124.167709 
	C199.979309,123.961502 199.971802,123.976845 199.971802,123.976852 
	C198.497452,124.527596 197.023087,125.078339 195.210785,125.643021 
z"/>
<path fill="#FEF7E2" opacity="1.000000" stroke="none" 
	d="
M170.052155,235.310776 
	C170.855026,235.922577 171.715149,236.840927 172.520309,238.107056 
	C171.680038,237.509003 170.894699,236.563156 170.052155,235.310776 
z"/>
<path fill="#FDE4B8" opacity="1.000000" stroke="none" 
	d="
M89.578751,226.937317 
	C89.464615,227.999786 89.111580,229.303619 88.490509,230.826508 
	C88.594933,229.756592 88.967400,228.467651 89.578751,226.937317 
z"/>
<path fill="#FEF7E2" opacity="1.000000" stroke="none" 
	d="
M81.159401,125.678894 
	C81.004082,125.035080 80.924774,124.497391 80.812897,123.549973 
	C81.151978,123.097458 81.523636,123.054657 82.541603,123.269127 
	C83.438919,123.650368 83.689911,123.774330 83.940903,123.898293 
	C83.944115,124.379791 83.947319,124.861298 83.642715,125.664093 
	C82.721436,125.929176 82.107986,125.872955 81.494530,125.816734 
	C81.494530,125.816734 81.235405,125.785011 81.159401,125.678894 
z"/>
<path fill="#FDE4B8" opacity="1.000000" stroke="none" 
	d="
M94.089973,196.544830 
	C94.267250,197.305649 94.321297,198.311127 94.188217,199.654938 
	C93.989639,198.925323 93.978195,197.857407 94.089973,196.544830 
z"/>
<path fill="#FDE4B8" opacity="1.000000" stroke="none" 
	d="
M87.947128,231.546082 
	C87.735237,232.497208 87.319260,233.671448 86.614960,234.987030 
	C86.798775,234.008667 87.270920,232.888931 87.947128,231.546082 
z"/>
<path fill="#FDE4B8" opacity="1.000000" stroke="none" 
	d="
M85.917992,235.549194 
	C85.725082,236.237045 85.293007,237.074570 84.584045,238.014297 
	C84.764374,237.310623 85.221603,236.504745 85.917992,235.549194 
z"/>
<path fill="#FDE4B8" opacity="1.000000" stroke="none" 
	d="
M81.631256,126.057388 
	C82.107986,125.872955 82.721436,125.929176 83.640579,126.025223 
	C84.028145,126.399193 84.110023,126.733337 84.167236,127.324738 
	C83.351051,127.154015 82.559517,126.726028 81.631256,126.057388 
z"/>
<path fill="#FDE4B8" opacity="1.000000" stroke="none" 
	d="
M38.602333,125.129906 
	C39.251747,125.288216 40.083046,125.642174 41.038624,126.249908 
	C40.370007,126.110977 39.577110,125.718269 38.602333,125.129906 
z"/>
<path fill="#FEF7E2" opacity="1.000000" stroke="none" 
	d="
M37.891483,243.065170 
	C38.126541,243.285477 38.076355,243.462524 37.880119,243.673950 
	C37.541275,243.686264 37.238461,243.629318 36.935638,243.572388 
	C37.195843,243.400528 37.456051,243.228668 37.891483,243.065170 
z"/>
<path fill="#FEF7E2" opacity="1.000000" stroke="none" 
	d="
M76.830681,243.189362 
	C76.660454,243.267776 76.035599,243.310623 75.438049,243.278534 
	C75.768929,243.186996 76.072487,243.170395 76.830681,243.189362 
z"/>
<path fill="#FDE4B8" opacity="1.000000" stroke="none" 
	d="
M105.924194,151.744354 
	C106.100609,152.132309 106.066483,152.339767 105.963448,152.854858 
	C105.362679,152.606430 104.830811,152.050385 104.268974,151.197815 
	C104.730553,151.122162 105.222107,151.343002 105.924194,151.744354 
z"/>
<path fill="#FDE4B8" opacity="1.000000" stroke="none" 
	d="
M97.602341,141.067535 
	C97.901558,141.568420 97.953636,141.985321 97.993759,142.717896 
	C97.452034,142.509003 96.922264,141.984421 96.358795,141.175598 
	C96.668465,140.922104 97.011841,140.952820 97.602341,141.067535 
z"/>
<path fill="#FDE4B8" opacity="1.000000" stroke="none" 
	d="
M100.964096,147.034882 
	C101.391693,147.183594 101.803947,147.548370 102.209625,148.133026 
	C101.784958,147.985580 101.366859,147.618256 100.964096,147.034882 
z"/>
<path fill="#FBD48E" opacity="1.000000" stroke="none" 
	d="
M191.969757,128.049347 
	C191.987152,127.711891 192.227951,127.359367 192.694138,126.988480 
	C192.677399,127.324829 192.435272,127.679550 191.969757,128.049347 
z"/>
<path fill="#FBD48E" opacity="1.000000" stroke="none" 
	d="
M190.244446,129.892212 
	C190.229111,129.573227 190.431656,129.197830 190.857330,128.775665 
	C190.874420,129.097855 190.668365,129.466827 190.244446,129.892212 
z"/>
<path fill="#FBD48E" opacity="1.000000" stroke="none" 
	d="
M199.985718,123.944656 
	C200.222595,123.942169 200.453064,123.956543 200.683548,123.970909 
	C200.666489,123.826027 200.655533,123.556557 200.631439,123.555374 
	C200.368591,123.542511 200.103668,123.571602 199.905563,123.783066 
	C199.971802,123.976845 199.979309,123.961502 199.985718,123.944656 
z"/>
<path fill="#FBD48E" opacity="1.000000" stroke="none" 
	d="
M193.242996,126.904274 
	C193.346329,126.546997 193.719162,126.165039 194.372101,125.779625 
	C194.272308,126.143974 193.892395,126.511787 193.242996,126.904274 
z"/>
<path fill="#FDE4B8" opacity="1.000000" stroke="none" 
	d="
M84.174484,123.893532 
	C83.689911,123.774330 83.438919,123.650368 82.819031,123.324455 
	C83.094971,123.051506 83.739784,122.980499 84.699150,123.000626 
	C85.013695,123.091766 84.950073,123.486580 84.912628,123.682076 
	C84.875183,123.877571 84.408058,123.888771 84.174484,123.893532 
z"/>
<path fill="#FDE4B8" opacity="1.000000" stroke="none" 
	d="
M41.981750,239.752075 
	C42.319569,240.002304 42.327553,240.299774 41.969025,240.863098 
	C41.700356,241.126328 41.266228,241.245743 41.266228,241.245743 
	C41.266228,241.245743 41.038948,241.034698 40.925308,240.929169 
	C41.124371,240.481339 41.437073,240.139008 41.981750,239.752075 
z"/>
<path fill="#FDE4B8" opacity="1.000000" stroke="none" 
	d="
M89.844002,133.164917 
	C89.926437,133.117401 90.076561,133.175919 90.050194,133.216400 
	C90.023827,133.256866 89.761566,133.212433 89.844002,133.164917 
z"/>
<path fill="#FDE4B8" opacity="1.000000" stroke="none" 
	d="
M83.955627,238.449539 
	C84.129486,238.615326 84.073685,238.767975 83.811493,238.933456 
	C83.587898,238.774033 83.628181,238.604065 83.955627,238.449539 
z"/>
<path fill="#FDE4B8" opacity="1.000000" stroke="none" 
	d="
M68.929153,237.069412 
	C69.314026,237.166779 69.524391,237.418793 69.728752,237.966064 
	C69.788216,238.206680 69.596924,238.393448 69.340790,238.410675 
	C69.084648,238.427902 68.739845,238.342865 68.709457,238.253296 
	C68.679062,238.163712 68.638863,237.978836 68.642052,237.825974 
	C68.645241,237.673111 68.602753,237.370285 68.602753,237.370285 
	C68.602753,237.370285 68.820107,237.169434 68.929153,237.069412 
z"/>
<path fill="#FDE4B8" opacity="1.000000" stroke="none" 
	d="
M98.053749,205.744263 
	C97.727493,205.798996 97.643967,205.539642 97.840416,205.109039 
	C97.997559,205.161758 98.056252,205.325897 98.053749,205.744263 
z"/>
<path fill="#FDE4B8" opacity="1.000000" stroke="none" 
	d="
M87.861557,129.911575 
	C88.117775,130.110016 88.097069,130.291962 88.033890,130.745270 
	C87.706688,130.839386 87.421967,130.662155 87.086380,130.229797 
	C87.218559,129.948135 87.401596,129.921600 87.861557,129.911575 
z"/>
<path fill="#FDE4B8" opacity="1.000000" stroke="none" 
	d="
M41.610668,126.996506 
	C41.572361,126.827644 42.057636,126.881439 42.290638,126.955292 
	C42.523640,127.029144 42.467113,127.262367 42.362450,127.321014 
	C42.257782,127.379662 41.911526,127.391327 41.911526,127.391327 
	C41.911526,127.391327 41.648975,127.165359 41.610668,126.996506 
z"/>
<path fill="#FEF7E2" opacity="1.000000" stroke="none" 
	d="
M123.994362,146.022430 
	C123.991257,146.536148 123.839920,146.901428 123.688583,147.266693 
	C123.377159,146.955856 123.065742,146.645035 122.754326,146.334198 
	C123.118256,146.180786 123.482193,146.027390 123.994362,146.022430 
z"/>
<path fill="#FEF7E2" opacity="1.000000" stroke="none" 
	d="
M96.493210,132.494934 
	C96.512039,132.488510 96.474388,132.501358 96.493210,132.494934 
z"/>
<path fill="#057F01" opacity="1.000000" stroke="none" 
	d="
M341.658203,150.776276 
	C335.069031,156.938141 328.450104,162.953583 322.066010,169.208740 
	C308.520264,182.481003 295.044250,195.825485 281.641022,209.241669 
	C271.998474,218.893539 262.567108,228.756180 252.951324,238.435150 
	C246.785950,244.641037 245.988678,244.546616 239.762329,238.311829 
	C223.630219,222.157806 207.589767,205.909698 191.265320,189.952255 
	C187.583359,186.353088 187.745041,183.694321 191.109177,180.432693 
	C193.381821,178.229263 195.567215,175.936005 197.798676,173.689911 
	C204.880997,166.561142 205.002426,166.550354 211.969803,173.501083 
	C221.165924,182.675201 230.349319,191.862076 239.526917,201.054718 
	C246.465698,208.004852 246.417862,207.972717 253.285553,201.100281 
	C277.197021,177.172241 301.188446,153.323700 325.007263,129.303925 
	C328.057831,126.227623 330.130707,125.778313 333.018982,129.248764 
	C335.354065,132.054474 338.162659,134.465790 340.758209,137.055038 
	C346.891296,143.173203 346.890564,143.173935 341.888306,150.261276 
	C341.811523,150.585739 341.734802,150.738464 341.658203,150.776276 
z"/>
<path fill="#FDE4B8" opacity="1.000000" stroke="none" 
	d="
M98.037285,211.293671 
	C98.280777,211.784042 98.520584,212.595764 98.748978,213.729263 
	C98.502907,213.239044 98.268250,212.427017 98.037285,211.293671 
z"/>
<path fill="#FFFFFF" opacity="1.000000" stroke="none" 
	d="
M52.466110,242.852051 
	C51.644424,235.757217 51.460655,228.704269 50.797047,221.696762 
	C50.644753,220.088562 48.842464,218.636642 47.448685,217.057312 
	C47.074097,192.312531 47.050346,167.623215 47.066525,142.466034 
	C48.390835,139.995514 50.525703,138.105347 50.808174,135.970123 
	C51.870285,127.941574 51.652534,127.843079 59.772243,128.040131 
	C62.225361,128.099655 64.667557,128.609253 67.526886,128.946777 
	C67.886574,129.426529 67.834145,129.872162 67.606255,130.816650 
	C67.271919,131.545685 67.141937,131.791183 67.040833,132.051971 
	C66.952408,132.456375 66.863991,132.860779 66.488708,133.722549 
	C66.162270,135.123627 66.122688,136.067352 66.083115,137.011063 
	C66.078125,167.357285 66.073135,197.703522 65.883469,228.792023 
	C66.049805,231.055756 66.400826,232.577225 66.751839,234.098694 
	C66.751839,234.098694 66.862434,234.561157 67.010498,234.963028 
	C67.282898,235.588638 67.425255,235.800247 67.585640,235.999710 
	C67.635452,236.195587 67.685272,236.391449 67.949814,237.015106 
	C68.310852,237.631989 68.468956,237.810638 68.638863,237.978836 
	C68.638863,237.978836 68.679062,238.163712 68.654846,238.494202 
	C69.151489,239.490524 69.672340,240.156372 70.193184,240.822205 
	C69.474396,241.469955 68.778046,242.648285 68.033203,242.679764 
	C63.004459,242.892349 57.965450,242.862091 52.466110,242.852051 
z"/>
<path fill="#FEF7E2" opacity="1.000000" stroke="none" 
	d="
M66.780441,233.719604 
	C66.400826,232.577225 66.049805,231.055756 65.900421,229.259430 
	C66.337723,230.436569 66.573387,231.888550 66.780441,233.719604 
z"/>
<path fill="#FEF7E2" opacity="1.000000" stroke="none" 
	d="
M70.013649,124.348618 
	C70.788429,123.976723 71.562897,123.976723 73.031456,123.976723 
	C72.180298,125.086662 71.687843,125.728836 71.003799,126.561188 
	C70.812218,126.751358 70.390732,126.869972 70.174980,126.908325 
	C69.977272,126.204628 69.995308,125.462570 70.013649,124.348618 
z"/>
<path fill="#FEF7E2" opacity="1.000000" stroke="none" 
	d="
M66.241211,136.727081 
	C66.122688,136.067352 66.162270,135.123627 66.426239,134.026688 
	C66.566864,134.729996 66.483086,135.586548 66.241211,136.727081 
z"/>
<path fill="#FEF7E2" opacity="1.000000" stroke="none" 
	d="
M68.642052,237.825974 
	C68.468956,237.810638 68.310852,237.631989 68.060272,237.297424 
	C67.956009,237.151947 68.288979,237.234818 68.445862,237.302551 
	C68.602753,237.370285 68.645241,237.673111 68.642052,237.825974 
z"/>
<path fill="#FEF7E2" opacity="1.000000" stroke="none" 
	d="
M67.183220,131.896454 
	C67.141937,131.791183 67.271919,131.545685 67.553978,131.149139 
	C67.613266,131.260208 67.496078,131.512909 67.183220,131.896454 
z"/>
<path fill="#FEF7E2" opacity="1.000000" stroke="none" 
	d="
M67.531601,235.812241 
	C67.425255,235.800247 67.282898,235.588638 67.073669,235.192230 
	C67.198753,235.183319 67.361679,235.385056 67.531601,235.812241 
z"/>
<path fill="#FEF7E2" opacity="1.000000" stroke="none" 
	d="
M45.056980,130.315735 
	C45.693867,129.956955 46.392952,129.897049 47.092037,129.837128 
	C47.030422,130.741364 46.968811,131.645599 46.787479,132.857986 
	C46.151569,132.315628 45.635376,131.465118 45.056980,130.315735 
z"/>
<path fill="#FEF7E2" opacity="1.000000" stroke="none" 
	d="
M70.118263,240.533173 
	C69.672340,240.156372 69.151489,239.490524 68.685242,238.583771 
	C68.739845,238.342865 69.084648,238.427902 69.244209,238.503082 
	C69.616959,239.133560 69.830147,239.688858 70.118263,240.533173 
z"/>
<path fill="#FEF7E2" opacity="1.000000" stroke="none" 
	d="
M41.299141,241.516266 
	C41.266228,241.245743 41.700356,241.126328 41.922066,241.084259 
	C42.389267,241.518188 42.634754,241.994202 42.940208,242.733856 
	C42.444138,242.593933 41.888096,242.190369 41.299141,241.516266 
z"/>
</svg>